#!OML:ASF \\Waltz\H\Terrain\Patient Classification 1\Animal1\Tuesday\Animal1.ASF
:FULLY-SPECIFIED
:DEGREES
1076
root 10.2534 16.432 -4.10347 -347.176 37.5567 -4.01021
lowerback 21.1643 -1.10767 3.91047
upperback 4.67896 -0.38544 1.14504
thorax -6.74223 -0.19263 -0.896857
lowerneck -10.0096 -1.18961 -7.29864
upperneck 3.54351 -1.27312 10.2441
head 2.80147 -0.327875 4.24695
rclavicle 2.39411e-014 -1.717e-014
rhumerus -7.32079 23.7296 -84.2377
rradius 98.7686
rwrist 16.9934
rhand 26.5448 -2.06083
rfingers 7.12502
rthumb 50.5755 -22.9761
lclavicle 2.39411e-014 -1.717e-014
lhumerus -14.494 -22.8496 100.717
lradius 94.9173
lwrist -63.0248
lhand 27.7277 43.4029
lfingers 7.12502
lthumb 51.6529 63.7124
rfemur -51.4289 12.9286 14.0768
rtibia 39.7403
rfoot 3.69678 -21.1637
rtoes 27.2464
lfemur -46.5579 0.44821 -29.8451
ltibia 61.5854
lfoot 16.7157 -5.39633
ltoes 25.7509
1077
root 10.3357 16.4082 -3.92526 -347.861 37.8378 -4.64369
lowerback 20.7411 -1.01052 4.35237
upperback 4.89141 -0.181347 1.27797
thorax -6.27981 -0.0882535 -1.06219
lowerneck -9.96494 -1.28517 -7.43483
upperneck 3.64183 -1.39693 10.2889
head 2.83595 -0.389966 4.27718
rclavicle 1.45461e-013 -7.8023e-014
rhumerus -6.37951 23.7186 -83.6595
rradius 98.4581
rwrist 18.0294
rhand 28.5163 -1.7681
rfingers 7.12502
rthumb 52.3682 -21.6525
lclavicle 1.45461e-013 -7.8023e-014
lhumerus -14.1196 -23.0764 100.728
lradius 95.1227
lwrist -62.6965
lhand 28.8529 42.9944
lfingers 7.12502
lthumb 52.6728 62.6918
rfemur -51.0546 13.5918 14.7158
rtibia 38.8354
rfoot 3.24535 -21.4313
rtoes 33.7983
lfemur -48.4826 1.43178 -28.8952
ltibia 64.8767
lfoot 20.145 -7.02976
ltoes 28.3851
1078
root 10.419 16.3583 -3.74649 -349.207 38.1144 -5.49335
lowerback 21.1228 -0.979737 5.08685
upperback 5.02021 0.0465485 1.36545
thorax -6.32523 0.0164625 -1.44326
lowerneck -9.88099 -1.35447 -7.58711
upperneck 4.03374 -1.51673 10.5022
head 2.95345 -0.441488 4.36444
rclavicle 5.49143e-014 -5.32743e-014
rhumerus -5.81354 23.7498 -83.3414
rradius 98.3608
rwrist 18.5982
rhand 29.3021 -1.51197
rfingers 7.12502
rthumb 53.0784 -20.9545
lclavicle 5.49143e-014 -5.32743e-014
lhumerus -14.178 -23.5086 100.764
lradius 95.3975
lwrist -62.5195
lhand 29.3457 43.5548
lfingers 7.12502
lthumb 53.1178 62.9723
rfemur -49.8043 13.4989 16.4977
rtibia 38.857
rfoot 2.28481 -22.3451
rtoes 36.2333
lfemur -49.8297 2.24587 -27.6351
ltibia 68.1604
lfoot 21.9338 -7.65625
ltoes 33.104
1079
root 10.4898 16.2724 -3.569 -350.374 38.5394 -6.01719
lowerback 21.4971 -0.930932 5.49168
upperback 5.15578 0.229403 1.42354
thorax -6.35876 0.104378 -1.65861
lowerneck -9.93019 -1.51528 -7.80179
upperneck 4.44571 -1.7565 10.8622
head 3.1131 -0.543053 4.50169
rclavicle -7.00716e-015 -3.52843e-015
rhumerus -5.12313 23.6061 -82.9786
rradius 98.3716
rwrist 18.8703
rhand 30.3387 -1.11345
rfingers 7.12502
rthumb 54.0112 -19.9439
lclavicle -7.00716e-015 -3.52843e-015
lhumerus -14.1642 -24.1068 100.696
lradius 95.6742
lwrist -62.5406
lhand 29.6965 43.5872
lfingers 7.12502
lthumb 53.4339 62.8009
rfemur -48.3297 12.7383 18.4945
rtibia 39.6721
rfoot 2.92845 -22.8069
rtoes 27.4723
lfemur -51.2964 2.64571 -26.5378
ltibia 71.3137
lfoot 21.9222 -7.61634
ltoes 35.4095
1080
root 10.5696 16.1814 -3.39111 -350.747 38.6713 -5.79718
lowerback 21.1908 -0.693622 5.30322
upperback 5.3204 0.458799 1.27724
thorax -6.00505 0.229112 -1.76883
lowerneck -10.2412 -1.71993 -8.00223
upperneck 4.90966 -2.04957 11.2543
head 3.3387 -0.660175 4.6441
rclavicle -2.10712e-014 1.05356e-014
rhumerus -4.15718 23.3198 -82.5882
rradius 98.5094
rwrist 18.7141
rhand 29.1059 -0.900674
rfingers 7.12502
rthumb 52.9014 -20.4553
lclavicle -2.10712e-014 1.05356e-014
lhumerus -14.0508 -24.6251 100.535
lradius 96.0114
lwrist -62.7712
lhand 29.7021 43.0468
lfingers 7.12502
lthumb 53.4389 62.2572
rfemur -47.4312 12.0708 19.5511
rtibia 41.1738
rfoot 1.56399 -22.5859
rtoes 22.1346
lfemur -53.0052 3.03307 -26.1287
ltibia 73.9757
lfoot 20.0793 -7.38193
ltoes 32.5441
1081
root 10.642 16.0815 -3.23061 -351.567 39.3648 -5.40233
lowerback 21.8379 -0.7056 5.26253
upperback 5.53107 0.472969 1.15491
thorax -6.1102 0.242229 -1.88501
lowerneck -10.5045 -1.9538 -8.11629
upperneck 5.20296 -2.37418 11.4915
head 3.50745 -0.800483 4.7195
rclavicle -5.55603e-014 5.46658e-015
rhumerus -2.94671 22.9984 -82.0537
rradius 98.6058
rwrist 18.0083
rhand 27.5712 0.1481
rfingers 7.12502
rthumb 51.5106 -20.2438
lclavicle -5.55603e-014 5.46658e-015
lhumerus -13.8974 -25.1288 100.575
lradius 96.3907
lwrist -62.8101
lhand 28.1227 41.0217
lfingers 7.12502
lthumb 52.0115 61.1205
rfemur -46.2592 11.4317 20.0916
rtibia 43.1351
rfoot 0.654876 -22.1575
rtoes 14.4292
lfemur -54.1159 2.75635 -25.8106
ltibia 75.8912
lfoot 17.7937 -6.01941
ltoes 27.6047
1082
root 10.7114 15.9765 -3.08158 -352.28 40.0793 -4.99245
lowerback 22.4278 -0.712926 5.17592
upperback 5.69357 0.485206 1.10484
thorax -6.23758 0.253413 -1.89671
lowerneck -10.4921 -2.14183 -8.15254
upperneck 5.23732 -2.62489 11.4627
head 3.54106 -0.926489 4.70026
rclavicle 1.47101e-014 -1.35174e-014
rhumerus -1.82866 22.8251 -81.4119
rradius 98.6095
rwrist 17.6321
rhand 29.202 2.35924
rfingers 7.12502
rthumb 52.9881 -17.1406
lclavicle 1.47101e-014 -1.35174e-014
lhumerus -13.8079 -25.9327 100.794
lradius 96.8716
lwrist -62.4722
lhand 28.4828 43.1946
lfingers 7.12502
lthumb 52.3379 63.0974
rfemur -45.5097 10.9588 20.2802
rtibia 45.1645
rfoot 0.733579 -21.9356
rtoes 4.5194
lfemur -55.2542 2.12295 -25.4008
ltibia 77.0111
lfoot 16.1423 -4.31956
ltoes 22.7216
1083
root 10.81 15.8995 -2.95185 -353.734 40.9961 -3.94125
lowerback 24.5645 -1.02465 5.2997
upperback 5.9159 0.241856 0.751519
thorax -7.1001 0.127793 -2.29553
lowerneck -10.4454 -2.29388 -8.15546
upperneck 5.42407 -2.84777 11.4649
head 3.61196 -1.03546 4.68783
rclavicle 4.96962e-014 2.50469e-014
rhumerus -1.46889 22.7015 -81.3149
rradius 98.9936
rwrist 17.6322
rhand 29.2466 3.18611
rfingers 7.12502
rthumb 53.0284 -16.2883
lclavicle 4.96962e-014 2.50469e-014
lhumerus -14.0265 -26.4176 100.928
lradius 97.3264
lwrist -61.5958
lhand 30.5344 47.3024
lfingers 7.12502
lthumb 54.1867 66.0133
rfemur -43.6967 10.1525 19.6885
rtibia 47.2965
rfoot -1.98263 -21.8656
rtoes 5.92847
lfemur -54.6327 0.438995 -25.3393
ltibia 77.0362
lfoot 14.861 -2.1708
ltoes 22.0591
1084
root 10.8431 15.8411 -2.80939 -353.878 40.9249 -3.71406
lowerback 24.6029 -0.570085 4.62751
upperback 5.96828 0.668211 0.812897
thorax -7.0411 0.343346 -1.97108
lowerneck -10.478 -2.51481 -8.43873
upperneck 5.15812 -3.10446 11.7195
head 3.57322 -1.15864 4.79682
rclavicle 6.37105e-014 -2.16675e-014
rhumerus -0.57961 22.8094 -81.1704
rradius 99.5467
rwrist 17.6634
rhand 26.1237 1.49635
rfingers 7.12502
rthumb 50.1908 -19.6256
lclavicle 6.37105e-014 -2.16675e-014
lhumerus -13.9361 -27.1054 101.092
lradius 98.2785
lwrist -61.4993
lhand 31.5974 45.6977
lfingers 7.12502
lthumb 55.137 63.7368
rfemur -43.8546 10.4449 19.8103
rtibia 49.242
rfoot -4.97965 -21.7537
rtoes 10.8932
lfemur -55.9656 0.466278 -24.2358
ltibia 76.438
lfoot 13.0195 -1.89562
ltoes 21.0102
1085
root 10.9178 15.7336 -2.68625 -354.471 41.5746 -3.53232
lowerback 25.0151 -0.598857 4.85397
upperback 6.10625 0.715629 0.779422
thorax -7.08972 0.368914 -2.15542
lowerneck -9.94247 -2.69809 -8.53448
upperneck 4.30417 -3.32186 11.9454
head 3.25912 -1.2852 4.86779
rclavicle -1.34677e-013 5.94366e-014
rhumerus 0.709622 23.1258 -80.8141
rradius 99.957
rwrist 17.898
rhand 22.5367 -0.681051
rfingers 7.12502
rthumb 46.8904 -23.3954
lclavicle -1.34677e-013 5.94366e-014
lhumerus -13.7001 -27.4313 101.222
lradius 98.8642
lwrist -60.458
lhand 30.805 40.2228
lfingers 7.12502
lthumb 54.4292 58.7664
rfemur -43.5264 9.57339 20.0922
rtibia 51.2308
rfoot -7.08168 -21.3513
rtoes 12.3991
lfemur -56.871 -1.00222 -23.1579
ltibia 75.2446
lfoot 11.2083 -1.46915
ltoes 21.5906
1086
root 10.9873 15.6504 -2.54957 -355.58 41.5813 -3.74155
lowerback 25.9058 -0.235853 4.9949
upperback 6.09907 1.27338 0.72663
thorax -7.5021 0.624332 -2.47874
lowerneck -8.46308 -2.8614 -7.93217
upperneck 3.15501 -3.60685 11.8978
head 2.69277 -1.48067 4.74081
rclavicle -1.16687e-013 1.11319e-014
rhumerus 1.44105 22.766 -80.5894
rradius 100.344
rwrist 18.1506
rhand 19.4274 -1.00795
rfingers 7.12502
rthumb 44.0013 -24.8904
lclavicle -1.16687e-013 1.11319e-014
lhumerus -14.2009 -28.4386 101.55
lradius 99.5008
lwrist -60.2922
lhand 31.9175 40.5792
lfingers 7.12502
lthumb 55.4221 58.408
rfemur -42.7894 9.23053 20.8208
rtibia 53.0896
rfoot -8.11283 -21.2855
rtoes 10.4953
lfemur -57.1004 -1.97665 -21.5143
ltibia 73.3634
lfoot 9.66581 -1.35312
ltoes 26.3489
